<svg width="951" height="180" viewBox="0 0 951 180" fill="none" xmlns="http://www.w3.org/2000/svg">
<g clip-path="url(#clip0)">
<path d="M396.392 54V30.54H392.414V54H396.392ZM414.167 54V42.78C414.167 39.992 412.875 37.442 409.781 37.442C407.469 37.442 405.837 38.768 404.987 40.842H404.919V37.816H401.145V54H404.919V46.996C404.919 44.82 406.007 40.978 408.727 40.978C409.101 40.978 409.543 41.012 409.815 41.284C410.461 41.896 410.393 43.97 410.393 44.752V54H414.167ZM431.22 54V30.54H427.446V39.754H427.378C426.528 38.258 425.066 37.442 423.332 37.442C418.844 37.442 417.79 42.338 417.79 45.908C417.79 49.648 418.606 54.374 423.332 54.374C424.828 54.374 426.8 53.184 427.378 51.756H427.446V54H431.22ZM427.446 45.908C427.446 47.676 427.004 51.45 424.59 51.45C421.972 51.45 421.802 47.778 421.802 45.908C421.802 43.936 421.87 40.366 424.59 40.366C427.208 40.366 427.446 44.038 427.446 45.908ZM448.764 54V37.816H444.99V44.82C444.99 46.996 443.902 50.838 441.182 50.838C440.808 50.838 440.366 50.804 440.094 50.532C439.448 49.92 439.516 47.846 439.516 47.064V37.816H435.742V49.036C435.742 51.824 437.034 54.374 440.128 54.374C442.406 54.374 444.072 53.014 444.922 50.974H444.99V54H448.764ZM462.757 49.512C462.757 44.888 455.651 43.8 455.651 41.658C455.651 40.57 457.317 40.162 458.167 40.162C459.459 40.162 460.649 40.672 461.771 41.25V38.054C460.547 37.714 459.357 37.442 458.099 37.442C455.073 37.442 452.285 38.836 452.285 42.202C452.285 46.486 459.255 48.084 459.255 49.988C459.255 51.28 457.419 51.45 456.467 51.45C455.039 51.45 453.645 51.042 452.353 50.464V53.728C453.747 54.17 455.175 54.374 456.637 54.374C459.799 54.374 462.757 53.116 462.757 49.512ZM476.055 40.434V37.816H471.261V31.696L467.487 33.974V37.816H464.325V40.434H467.487V49.92C467.487 53.286 469.153 54.374 472.451 54.374C473.471 54.374 474.525 54.272 475.545 54.102V51.45C474.967 51.586 474.389 51.722 473.811 51.722C471.465 51.722 471.261 49.988 471.261 48.084V40.434H476.055ZM487.585 41.386V37.442C484.865 37.442 483.607 38.564 482.349 40.808H482.281V37.816H478.507V54H482.281V46.894C482.281 43.086 483.709 41.386 487.585 41.386ZM494.472 34.28V30.54H490.698V34.28H494.472ZM494.472 54V37.816H490.698V54H494.472ZM511.43 44.922V44.004C511.43 40.06 509.39 37.442 505.276 37.442C500.448 37.442 498.34 40.468 498.34 45.058C498.34 50.396 500.754 54.374 506.5 54.374C508.03 54.374 509.56 54.204 511.022 53.728V51.11C510.07 51.45 508.948 51.722 507.928 51.722C504.256 51.722 501.842 48.356 501.842 44.922H511.43ZM507.86 42.644H501.944C502.114 41.012 503.372 39.856 505.004 39.856C506.738 39.856 507.86 40.91 507.86 42.644ZM538.113 54V37.816H534.339V44.82C534.339 46.996 533.251 50.838 530.531 50.838C530.157 50.838 529.715 50.804 529.443 50.532C528.797 49.92 528.865 47.846 528.865 47.064V37.816H525.091V49.036C525.091 51.824 526.383 54.374 529.477 54.374C531.755 54.374 533.421 53.014 534.271 50.974H534.339V54H538.113ZM555.778 54V42.78C555.778 39.992 554.486 37.442 551.392 37.442C549.08 37.442 547.448 38.768 546.598 40.842H546.53V37.816H542.756V54H546.53V46.996C546.53 44.82 547.618 40.978 550.338 40.978C550.712 40.978 551.154 41.012 551.426 41.284C552.072 41.896 552.004 43.97 552.004 44.752V54H555.778ZM572.831 54V30.54H569.057V39.754H568.989C568.139 38.258 566.677 37.442 564.943 37.442C560.455 37.442 559.401 42.338 559.401 45.908C559.401 49.648 560.217 54.374 564.943 54.374C566.439 54.374 568.411 53.184 568.989 51.756H569.057V54H572.831ZM569.057 45.908C569.057 47.676 568.615 51.45 566.201 51.45C563.583 51.45 563.413 47.778 563.413 45.908C563.413 43.936 563.481 40.366 566.201 40.366C568.819 40.366 569.057 44.038 569.057 45.908ZM604.006 54V30.54H600.028V40.264H591.596V30.54H587.618V54H591.596V43.29H600.028V54H604.006ZM620.696 54V42.474C620.696 38.734 618.248 37.442 614.814 37.442C611.448 37.442 608.66 38.87 608.66 42.576H612.332C612.332 40.978 613.182 40.094 614.814 40.094C616.684 40.094 617.092 41.454 617.092 43.052V44.65C613.42 44.752 608.048 45.262 608.048 50.124C608.048 52.878 610.224 54.374 612.808 54.374C614.576 54.374 616.208 53.796 617.024 52.13H617.092V54H620.696ZM617.092 46.86C617.092 48.934 616.242 51.722 613.726 51.722C612.468 51.722 611.72 51.076 611.72 49.784C611.72 47.336 615.29 46.86 617.092 46.86ZM638.255 54V42.78C638.255 39.992 636.963 37.442 633.869 37.442C631.557 37.442 629.925 38.768 629.075 40.842H629.007V37.816H625.233V54H629.007V46.996C629.007 44.82 630.095 40.978 632.815 40.978C633.189 40.978 633.631 41.012 633.903 41.284C634.549 41.896 634.481 43.97 634.481 44.752V54H638.255ZM655.308 54V30.54H651.534V39.754H651.466C650.616 38.258 649.154 37.442 647.42 37.442C642.932 37.442 641.878 42.338 641.878 45.908C641.878 49.648 642.694 54.374 647.42 54.374C648.916 54.374 650.888 53.184 651.466 51.756H651.534V54H655.308ZM651.534 45.908C651.534 47.676 651.092 51.45 648.678 51.45C646.06 51.45 645.89 47.778 645.89 45.908C645.89 43.936 645.958 40.366 648.678 40.366C651.296 40.366 651.534 44.038 651.534 45.908ZM671.968 44.922V44.004C671.968 40.06 669.928 37.442 665.814 37.442C660.986 37.442 658.878 40.468 658.878 45.058C658.878 50.396 661.292 54.374 667.038 54.374C668.568 54.374 670.098 54.204 671.56 53.728V51.11C670.608 51.45 669.486 51.722 668.466 51.722C664.794 51.722 662.38 48.356 662.38 44.922H671.968ZM668.398 42.644H662.482C662.652 41.012 663.91 39.856 665.542 39.856C667.276 39.856 668.398 40.91 668.398 42.644ZM679.546 54V30.54H675.772V54H679.546ZM693.751 49.512C693.751 44.888 686.645 43.8 686.645 41.658C686.645 40.57 688.311 40.162 689.161 40.162C690.453 40.162 691.643 40.672 692.765 41.25V38.054C691.541 37.714 690.351 37.442 689.093 37.442C686.067 37.442 683.279 38.836 683.279 42.202C683.279 46.486 690.249 48.084 690.249 49.988C690.249 51.28 688.413 51.45 687.461 51.45C686.033 51.45 684.639 51.042 683.347 50.464V53.728C684.741 54.17 686.169 54.374 687.631 54.374C690.793 54.374 693.751 53.116 693.751 49.512ZM710.993 54L704.465 44.82L710.449 37.816H705.927L700.691 44.004V30.54H696.917V54H700.691V45.84H700.759L706.471 54H710.993ZM725.186 54V42.474C725.186 38.734 722.738 37.442 719.304 37.442C715.938 37.442 713.15 38.87 713.15 42.576H716.822C716.822 40.978 717.672 40.094 719.304 40.094C721.174 40.094 721.582 41.454 721.582 43.052V44.65C717.91 44.752 712.538 45.262 712.538 50.124C712.538 52.878 714.714 54.374 717.298 54.374C719.066 54.374 720.698 53.796 721.514 52.13H721.582V54H725.186ZM721.582 46.86C721.582 48.934 720.732 51.722 718.216 51.722C716.958 51.722 716.21 51.076 716.21 49.784C716.21 47.336 719.78 46.86 721.582 46.86ZM750.905 54V42.78C750.905 39.992 749.613 37.442 746.519 37.442C744.479 37.442 742.677 38.802 741.963 40.672H741.895C741.453 38.598 739.923 37.442 737.815 37.442C735.843 37.442 734.347 38.496 733.565 40.298H733.497V37.816H729.723V54H733.497V46.996C733.497 45.126 734.313 40.978 736.761 40.978C737.135 40.978 737.577 41.012 737.849 41.284C738.495 41.896 738.427 43.97 738.427 44.752V54H742.201V46.996C742.201 45.126 743.017 40.978 745.465 40.978C745.839 40.978 746.281 41.012 746.553 41.284C747.199 41.896 747.131 43.97 747.131 44.752V54H750.905ZM776.704 54V42.78C776.704 39.992 775.412 37.442 772.318 37.442C770.278 37.442 768.476 38.802 767.762 40.672H767.694C767.252 38.598 765.722 37.442 763.614 37.442C761.642 37.442 760.146 38.496 759.364 40.298H759.296V37.816H755.522V54H759.296V46.996C759.296 45.126 760.112 40.978 762.56 40.978C762.934 40.978 763.376 41.012 763.648 41.284C764.294 41.896 764.226 43.97 764.226 44.752V54H768V46.996C768 45.126 768.816 40.978 771.264 40.978C771.638 40.978 772.08 41.012 772.352 41.284C772.998 41.896 772.93 43.97 772.93 44.752V54H776.704ZM793.425 44.922V44.004C793.425 40.06 791.385 37.442 787.271 37.442C782.443 37.442 780.335 40.468 780.335 45.058C780.335 50.396 782.749 54.374 788.495 54.374C790.025 54.374 791.555 54.204 793.017 53.728V51.11C792.065 51.45 790.943 51.722 789.923 51.722C786.251 51.722 783.837 48.356 783.837 44.922H793.425ZM789.855 42.644H783.939C784.109 41.012 785.367 39.856 786.999 39.856C788.733 39.856 789.855 40.91 789.855 42.644ZM806.069 41.386V37.442C803.349 37.442 802.091 38.564 800.833 40.808H800.765V37.816H796.991V54H800.765V46.894C800.765 43.086 802.193 41.386 806.069 41.386ZM404.552 90V87.79H395.542V78.814H403.838V76.604H395.542V68.75H404.246V66.54H392.89V90H404.552ZM417.434 85.478C417.434 82.826 415.632 82.044 413.66 80.854L412.3 80.038C411.348 79.46 409.376 78.848 409.376 77.488C409.376 75.924 411.382 75.38 412.64 75.38C413.864 75.38 415.258 75.686 416.414 76.128V73.986C415.156 73.68 413.932 73.442 412.606 73.442C409.818 73.442 407.064 74.53 407.064 77.726C407.064 80.208 408.832 81.092 410.736 82.112L412.198 82.894C413.388 83.54 415.122 84.22 415.122 85.818C415.122 87.96 412.912 88.436 411.178 88.436C409.75 88.436 408.356 88.062 406.996 87.586V89.694C408.424 90.136 409.92 90.374 411.416 90.374C414.646 90.374 417.434 89.116 417.434 85.478ZM430.018 85.478C430.018 82.826 428.216 82.044 426.244 80.854L424.884 80.038C423.932 79.46 421.96 78.848 421.96 77.488C421.96 75.924 423.966 75.38 425.224 75.38C426.448 75.38 427.842 75.686 428.998 76.128V73.986C427.74 73.68 426.516 73.442 425.19 73.442C422.402 73.442 419.648 74.53 419.648 77.726C419.648 80.208 421.416 81.092 423.32 82.112L424.782 82.894C425.972 83.54 427.706 84.22 427.706 85.818C427.706 87.96 425.496 88.436 423.762 88.436C422.334 88.436 420.94 88.062 419.58 87.586V89.694C421.008 90.136 422.504 90.374 424 90.374C427.23 90.374 430.018 89.116 430.018 85.478ZM444.506 80.378V79.596C444.506 76.026 442.636 73.442 438.862 73.442C434.102 73.442 432.538 77.148 432.538 81.364C432.538 86.6 434.816 90.374 440.426 90.374C441.684 90.374 442.942 90.272 444.132 89.898V87.994C443.044 88.266 442.058 88.436 440.936 88.436C436.958 88.436 435.19 84.866 435.19 81.33V80.378H444.506ZM441.854 78.44H435.36C435.7 76.672 436.856 75.38 438.76 75.38C440.528 75.38 441.854 76.672 441.854 78.44ZM460.328 90V78.44C460.328 75.89 459.036 73.442 456.18 73.442C453.358 73.442 451.93 75.074 451.114 77.556H451.046V73.816H448.734V90H451.046V83.336C451.046 80.786 452.406 75.754 455.636 75.754C458.288 75.754 458.016 79.188 458.016 81.024V90H460.328ZM476.913 80.854V77.556H473.649V80.854H476.913ZM511.759 90V66.54H507.815L501.151 86.498H501.083L494.419 66.54H490.441V90H492.821V69.362H492.889L499.791 90H502.409L509.311 69.362H509.379V90H511.759ZM527.803 70.62V67.628H524.743V70.62H527.803ZM521.819 70.62V67.628H518.759V70.62H521.819ZM528.755 90V73.816H526.443V80.48C526.443 83.03 525.117 88.062 521.887 88.062C519.235 88.062 519.507 84.628 519.507 82.792V73.816H517.195V85.376C517.195 87.96 518.487 90.374 521.343 90.374C524.131 90.374 525.627 88.742 526.375 86.26H526.443V90H528.755ZM536.847 90V66.54H534.535V90H536.847ZM554.127 90V78.44C554.127 75.89 552.835 73.442 549.979 73.442C547.157 73.442 545.729 75.074 544.913 77.556H544.845V66.54H542.533V90H544.845V83.336C544.845 80.786 546.205 75.754 549.435 75.754C552.087 75.754 551.815 79.188 551.815 81.024V90H554.127ZM570.413 80.378V79.596C570.413 76.026 568.543 73.442 564.769 73.442C560.009 73.442 558.445 77.148 558.445 81.364C558.445 86.6 560.723 90.374 566.333 90.374C567.591 90.374 568.849 90.272 570.039 89.898V87.994C568.951 88.266 567.965 88.436 566.843 88.436C562.865 88.436 561.097 84.866 561.097 81.33V80.378H570.413ZM567.761 78.44H561.267C561.607 76.672 562.763 75.38 564.667 75.38C566.435 75.38 567.761 76.672 567.761 78.44ZM577.53 69.6V66.54H574.47V69.6H577.53ZM577.156 90V73.816H574.844V90H577.156ZM602.595 90V78.44C602.595 75.89 601.303 73.442 598.447 73.442C596.169 73.442 594.537 75.074 593.857 77.148H593.789C593.619 74.734 592.123 73.442 589.709 73.442C587.057 73.442 585.833 75.244 585.187 77.556H585.119V73.816H582.807V90H585.119V83.336C585.119 81.092 586.207 75.754 589.165 75.754C591.817 75.754 591.545 79.188 591.545 81.024V90H593.857V83.336C593.857 81.092 594.911 75.754 597.903 75.754C600.555 75.754 600.283 79.188 600.283 81.024V90H602.595ZM627.177 90V78.644C627.177 75.04 625.409 73.442 621.737 73.442C618.847 73.442 615.991 74.7 615.923 77.964H618.507C618.745 76.026 619.901 75.38 621.805 75.38C625.035 75.38 624.865 77.964 624.865 80.378V80.718C624.321 80.82 623.811 80.82 623.267 80.82C620.275 80.82 615.549 82.146 615.549 85.852C615.549 88.606 617.113 90.374 619.901 90.374C621.703 90.374 623.981 89.558 624.865 87.858H624.933V90H627.177ZM624.865 82.656C624.865 84.016 624.797 84.696 624.253 85.92C623.573 87.382 622.111 88.436 620.479 88.436C619.119 88.436 618.201 87.45 618.201 86.09C618.201 83.506 621.431 82.656 623.505 82.656H624.865ZM644.173 90V78.44C644.173 75.89 642.881 73.442 640.025 73.442C637.203 73.442 635.775 75.074 634.959 77.556H634.891V73.816H632.579V90H634.891V83.336C634.891 80.786 636.251 75.754 639.481 75.754C642.133 75.754 641.861 79.188 641.861 81.024V90H644.173ZM669.326 90V66.54H667.014V76.468H666.946C666.266 74.496 664.804 73.442 662.696 73.442C658.276 73.442 657.188 78.542 657.188 82.044C657.188 85.818 658.072 90.374 662.73 90.374C664.668 90.374 666.402 89.116 666.946 87.246H667.014V90H669.326ZM667.014 81.976C667.014 84.22 666.096 88.436 663.206 88.436C660.214 88.436 659.84 84.73 659.84 82.486C659.84 80.242 660.112 75.38 663.274 75.38C666.334 75.38 667.014 79.698 667.014 81.976ZM685.627 80.378V79.596C685.627 76.026 683.757 73.442 679.983 73.442C675.223 73.442 673.659 77.148 673.659 81.364C673.659 86.6 675.937 90.374 681.547 90.374C682.805 90.374 684.063 90.272 685.253 89.898V87.994C684.165 88.266 683.179 88.436 682.057 88.436C678.079 88.436 676.311 84.866 676.311 81.33V80.378H685.627ZM682.975 78.44H676.481C676.821 76.672 677.977 75.38 679.881 75.38C681.649 75.38 682.975 76.672 682.975 78.44ZM697.641 75.924V73.442C695.057 73.442 693.255 74.598 692.235 76.944H692.167V73.816H689.855V90H692.167V83.302C692.167 79.766 693.459 75.924 697.641 75.924ZM723.488 90L722.128 83.574C721.55 80.786 721.176 79.222 718.082 78.406V78.338C721.244 77.556 722.842 75.856 722.842 72.456C722.842 68.002 719.204 66.54 715.362 66.54H709.548V90H712.2V79.562H714.648C718.354 79.562 719 81.364 719.68 84.594L720.836 90H723.488ZM720.19 72.728C720.19 76.638 716.858 77.352 713.662 77.352H712.2V68.75H714.172C717.198 68.75 720.19 68.852 720.19 72.728ZM739.064 90V73.816H736.752V80.48C736.752 83.03 735.426 88.062 732.196 88.062C729.544 88.062 729.816 84.628 729.816 82.792V73.816H727.504V85.376C727.504 87.96 728.796 90.374 731.652 90.374C734.44 90.374 735.936 88.742 736.684 86.26H736.752V90H739.064ZM756.234 90V78.44C756.234 75.89 754.942 73.442 752.086 73.442C749.264 73.442 747.836 75.074 747.02 77.556H746.952V66.54H744.64V90H746.952V83.336C746.952 80.786 748.312 75.754 751.542 75.754C754.194 75.754 753.922 79.188 753.922 81.024V90H756.234ZM769.426 75.924V73.442C766.842 73.442 765.04 74.598 764.02 76.944H763.952V73.816H761.64V90H763.952V83.302C763.952 79.766 765.244 75.924 769.426 75.924ZM783.543 80.854V77.556H780.279V80.854H783.543ZM812.61 78.236C812.61 72.626 811.148 66.166 804.28 66.166C797.378 66.166 795.916 72.592 795.916 78.236C795.916 83.846 797.378 90.374 804.28 90.374C811.148 90.374 812.61 83.812 812.61 78.236ZM809.72 78.202C809.72 81.84 809.21 88.164 804.28 88.164C799.35 88.164 798.806 81.874 798.806 78.202C798.806 74.53 799.35 68.376 804.28 68.376C809.21 68.376 809.72 74.53 809.72 78.202ZM829.16 82.078C829.16 78.304 828.038 73.442 823.38 73.442C821.374 73.442 819.606 74.564 818.994 76.502H818.926V66.54H816.614V83.336C816.614 87.382 818.11 90.374 822.666 90.374C827.562 90.374 829.16 86.328 829.16 82.078ZM826.508 82.01C826.508 84.526 825.828 88.436 822.598 88.436C819.436 88.436 818.926 85.002 818.926 82.554C818.926 80.14 819.708 75.38 822.938 75.38C825.964 75.38 826.508 79.766 826.508 82.01ZM844.305 80.378V79.596C844.305 76.026 842.435 73.442 838.661 73.442C833.901 73.442 832.337 77.148 832.337 81.364C832.337 86.6 834.615 90.374 840.225 90.374C841.483 90.374 842.741 90.272 843.931 89.898V87.994C842.843 88.266 841.857 88.436 840.735 88.436C836.757 88.436 834.989 84.866 834.989 81.33V80.378H844.305ZM841.653 78.44H835.159C835.499 76.672 836.655 75.38 838.559 75.38C840.327 75.38 841.653 76.672 841.653 78.44ZM856.319 75.924V73.442C853.735 73.442 851.933 74.598 850.913 76.944H850.845V73.816H848.533V90H850.845V83.302C850.845 79.766 852.137 75.924 856.319 75.924ZM870.851 90V78.44C870.851 75.89 869.559 73.442 866.703 73.442C863.881 73.442 862.453 75.074 861.637 77.556H861.569V66.54H859.257V90H861.569V83.336C861.569 80.786 862.929 75.754 866.159 75.754C868.811 75.754 868.539 79.188 868.539 81.024V90H870.851ZM886.593 90V78.644C886.593 75.04 884.825 73.442 881.153 73.442C878.263 73.442 875.407 74.7 875.339 77.964H877.923C878.161 76.026 879.317 75.38 881.221 75.38C884.451 75.38 884.281 77.964 884.281 80.378V80.718C883.737 80.82 883.227 80.82 882.683 80.82C879.691 80.82 874.965 82.146 874.965 85.852C874.965 88.606 876.529 90.374 879.317 90.374C881.119 90.374 883.397 89.558 884.281 87.858H884.349V90H886.593ZM884.281 82.656C884.281 84.016 884.213 84.696 883.669 85.92C882.989 87.382 881.527 88.436 879.895 88.436C878.535 88.436 877.617 87.45 877.617 86.09C877.617 83.506 880.847 82.656 882.921 82.656H884.281ZM903.419 90V73.816H901.107V80.48C901.107 83.03 899.781 88.062 896.551 88.062C893.899 88.062 894.171 84.628 894.171 82.792V73.816H891.859V85.376C891.859 87.96 893.151 90.374 896.007 90.374C898.795 90.374 900.291 88.742 901.039 86.26H901.107V90H903.419ZM917.971 85.478C917.971 82.826 916.169 82.044 914.197 80.854L912.837 80.038C911.885 79.46 909.913 78.848 909.913 77.488C909.913 75.924 911.919 75.38 913.177 75.38C914.401 75.38 915.795 75.686 916.951 76.128V73.986C915.693 73.68 914.469 73.442 913.143 73.442C910.355 73.442 907.601 74.53 907.601 77.726C907.601 80.208 909.369 81.092 911.273 82.112L912.735 82.894C913.925 83.54 915.659 84.22 915.659 85.818C915.659 87.96 913.449 88.436 911.715 88.436C910.287 88.436 908.893 88.062 907.533 87.586V89.694C908.961 90.136 910.457 90.374 911.953 90.374C915.183 90.374 917.971 89.116 917.971 85.478ZM932.459 80.378V79.596C932.459 76.026 930.589 73.442 926.815 73.442C922.055 73.442 920.491 77.148 920.491 81.364C920.491 86.6 922.769 90.374 928.379 90.374C929.637 90.374 930.895 90.272 932.085 89.898V87.994C930.997 88.266 930.011 88.436 928.889 88.436C924.911 88.436 923.143 84.866 923.143 81.33V80.378H932.459ZM929.807 78.44H923.313C923.653 76.672 924.809 75.38 926.713 75.38C928.481 75.38 929.807 76.672 929.807 78.44ZM948.281 90V78.44C948.281 75.89 946.989 73.442 944.133 73.442C941.311 73.442 939.883 75.074 939.067 77.556H938.999V73.816H936.687V90H938.999V83.336C938.999 80.786 940.359 75.754 943.589 75.754C946.241 75.754 945.969 79.188 945.969 81.024V90H948.281Z" fill="black"/>
<path fill-rule="evenodd" clip-rule="evenodd" d="M357.99 180L177.872 179.998C198.21 122.045 198.261 58.0287 177.868 0L360 0.00211668V180" fill="#003366"/>
<path fill-rule="evenodd" clip-rule="evenodd" d="M337.563 33.2232C339.001 31.6191 338.864 30.3189 337.259 30.3189H329.376C327.773 30.3189 326.968 30.1452 324.386 32.7251L302.371 56.5597L302.311 33.2232C302.311 31.6191 301.01 30.3189 299.404 30.3189H294.053C292.448 30.3189 291.145 31.6191 291.145 33.2232L291.143 86.2382C291.143 87.8403 292.444 89.1405 294.049 89.1405H299.425C301.03 89.1405 302.331 87.8403 302.331 86.2382L302.336 72.3757L312.116 61.8145L327.216 86.2382C328.199 87.8403 329.578 89.1405 331.184 89.1405H339.249C340.856 89.1405 341.361 87.8403 340.378 86.2382L319.55 53.5168L337.563 33.2232Z" fill="white"/>
<path fill-rule="evenodd" clip-rule="evenodd" d="M208.431 86.2376C208.431 87.8418 209.732 89.142 211.335 89.142H217.216C218.823 89.142 220.124 87.8418 220.124 86.2376L220.149 33.2247C220.149 31.6206 218.848 30.3203 217.243 30.3203H211.366C209.759 30.3203 208.46 31.6206 208.46 33.2247L208.431 86.2376Z" fill="white"/>
<path fill-rule="evenodd" clip-rule="evenodd" d="M267.332 33.2247C267.332 31.6206 268.633 30.3203 270.238 30.3203H276.048C277.656 30.3203 278.957 31.6206 278.957 33.2247L278.949 86.2397C278.949 87.8418 277.647 89.142 276.042 89.142H270.271C268.666 89.142 267.365 87.8418 267.365 86.2397L267.344 64.402H243.957L243.961 86.2397C243.961 87.8418 242.662 89.142 241.055 89.142H235.246C233.641 89.142 232.34 87.8418 232.34 86.2397L232.342 33.2247C232.342 31.6206 233.643 30.3203 235.248 30.3203H241.075C242.678 30.3203 243.982 31.6206 243.982 33.2247L243.957 54.5518H267.344L267.332 33.2247Z" fill="white"/>
<path fill-rule="evenodd" clip-rule="evenodd" d="M180.433 0L0 0.00211668V180L180.431 179.998C200.802 122.045 200.857 58.0287 180.433 0Z" fill="#CCD7E6"/>
<path d="M56.4313 81.7964C56.4313 81.7964 64.7105 87.9509 88.8196 88.4141C112.929 88.8773 135.846 85.6347 147.701 82.7229C162.604 79.0832 168.101 74.2523 163.068 71.87C156.577 68.8259 140.482 62.0758 112.531 64.0611C109.22 64.3258 90.4754 64.5244 78.2884 66.4435C66.1014 68.3626 49.0131 72.6641 42.1248 76.5023C35.2365 80.2744 22.056 90.3332 33.2495 96.8185C45.7677 104.032 51.8612 106.811 65.6378 108.863C86.4352 111.907 102.994 112.039 126.507 108.598C142.27 106.348 158.762 102.245 166.247 99.0023C173.665 95.8259 171.546 98.2744 171.546 99.7303C171.546 101.12 173.069 103.899 167.174 106.811C161.279 109.723 144.853 116.87 129.62 119.517C107.895 123.289 96.7677 125.407 75.043 123.554C61.1339 121.171 55.4378 121.171 36.7599 112.569C22.056 105.752 18.5456 97.5464 18.8105 93.1788C19.0754 88.8111 19.6053 80.0097 29.3417 73.5906C40.6014 66.1788 45.304 62.2082 74.8443 57.3111C105.246 52.2156 112.399 54.3994 122.201 54.1347C132.004 53.87 156.908 53.3406 171.347 63.2009C185.786 73.1273 173.268 81.4655 165.783 85.2376C159.16 88.6126 135.514 99.6641 96.9001 99.3994C58.2858 99.1347 52.7222 89.4729 51.7949 87.62C50.8677 85.7008 50.4703 79.6788 52.391 79.4803C54.0469 79.3479 56.4313 81.7964 56.4313 81.7964Z" fill="#003366"/>
<path d="M13.5117 80.0751C13.5117 72.134 19.9364 65.7148 27.8844 65.7148C35.8325 65.7148 42.2572 72.134 42.2572 80.0751C42.2572 88.0163 35.8325 94.4354 27.8844 94.4354C19.9364 94.4354 13.5117 88.0163 13.5117 80.0751Z" fill="white"/>
<path d="M16.3603 76.2329C16.3603 76.2329 14.3733 86.3579 21.9239 90.0638C29.3421 93.7035 33.7135 89.799 35.3694 88.8726C37.0252 87.9461 42.3239 81.3285 37.7538 74.8432C33.1837 68.3579 33.3824 70.277 33.3824 70.277C33.3824 70.277 32.5213 76.4976 26.759 78.8799C20.9967 81.1961 16.3603 76.2329 16.3603 76.2329Z" fill="#003366"/>
<path d="M84.9775 118.259C84.9775 110.318 91.4022 103.898 99.3503 103.898C107.298 103.898 113.723 110.318 113.723 118.259C113.723 126.2 107.298 132.619 99.3503 132.619C91.4022 132.619 84.9775 126.134 84.9775 118.259Z" fill="white"/>
<path d="M87.8261 114.42C87.8261 114.42 85.8391 124.545 93.3897 128.251C100.808 131.891 105.179 127.987 106.835 127.06C108.491 126.134 113.79 119.516 109.22 113.031C104.649 106.545 104.848 108.465 104.848 108.465C104.848 108.465 103.987 114.685 98.2248 117.067C92.3962 119.384 87.8261 114.42 87.8261 114.42Z" fill="#003366"/>
<path d="M119.618 60.8837C119.618 52.9426 126.043 46.5234 133.991 46.5234C141.939 46.5234 148.364 52.9426 148.364 60.8837C148.364 68.8249 141.939 75.244 133.991 75.244C126.043 75.1779 119.618 68.7587 119.618 60.8837Z" fill="white"/>
<path d="M122.399 57.0454C122.399 57.0454 120.412 67.1704 127.963 70.8763C135.381 74.516 139.753 70.6115 141.408 69.6851C143.064 68.7586 148.363 62.141 143.793 55.6557C139.223 49.1704 139.421 51.0895 139.421 51.0895C139.421 51.0895 138.56 57.3101 132.798 59.6924C127.036 62.0086 122.399 57.0454 122.399 57.0454Z" fill="#003366"/>
<path fill-rule="evenodd" clip-rule="evenodd" d="M275.965 123.789H280.085V113.401H281.67C285.41 113.401 285.917 114.668 286.742 118.532L287.883 123.725H292.067L290.609 116.948C290.038 114.415 289.658 112.325 286.298 111.565V111.501C288.77 110.931 291.116 109.728 291.116 105.928C291.116 101.177 287.883 99.5938 283.318 99.5938H276.028V123.789H275.965ZM280.085 102.507H283.318C285.601 102.507 286.932 103.901 286.932 106.371C286.932 109.918 284.269 110.488 281.734 110.488H280.149V102.507H280.085Z" fill="white"/>
<path d="M304.808 123.791H308.675V107.133H304.808V114.353C304.808 117.014 303.477 120.56 300.877 120.56C299.483 120.56 299.166 120.054 299.166 116.697V107.196H295.299V118.724C295.299 122.524 297.391 124.234 299.8 124.234C302.843 124.234 304.237 122.017 304.744 120.75H304.808V123.791Z" fill="white"/>
<path d="M313.492 123.789H317.359V116.568C317.359 113.971 318.627 110.361 321.289 110.361C322.684 110.361 323.001 110.868 323.001 114.225V123.725H326.868V112.198C326.868 108.398 324.776 106.688 322.367 106.688C319.261 106.688 317.93 108.904 317.423 110.171H317.359V99.5938H313.492V123.789Z" fill="white"/>
<path d="M331.562 123.791H335.429V116.507C335.429 112.453 336.951 110.87 340.881 110.87V106.816C337.521 106.816 336.38 108.653 335.493 110.3H335.429V107.196H331.562V123.791Z" fill="white"/>
</g>
<defs>
<clipPath id="clip0">
<rect width="951" height="180" fill="white"/>
</clipPath>
</defs>
</svg>
