<svg viewBox="0 0 3689 2238" width="37" height="22" xmlns="http://www.w3.org/2000/svg" style="image-rendering:optimizeQuality;shape-rendering:geometricPrecision;text-rendering:geometricPrecision"><defs><style type="text/css">  
    .fil0 {fill:#9f2d2d}
    .fil2 {fill:#FFFFFF}
    .fil1 {fill:#FFFFFF;fill-rule:nonzero}
   </style></defs><rect class="fil0" width="3689" height="2238"/><path class="fil1" d="M251 1258l0-534 53 0 0 534 -53 0Zm235 0l0-482 -114 0 0-52 282 0 0 52 -115 0 0 482 -53 0Zm435 0l153-534 62 0 144 534 -57 0 -30-115 -186 0 -33 115 -53 0Zm100-164l159 0 -76-298 -83 298Zm318 164l0-544 48 0 0 317 23 0 96-147 52 0 -110 169 132 205 -56 0 -114-178 -23 0 0 178 -48 0Zm388-37c27 0 45-6 57-18 11-12 16-32 16-62 0-28-5-47-14-57 -9-10-27-15-53-15 -26 0-44 6-53 16 -9 11-14 32-14 64 0 26 5 45 14 56 10 11 25 16 47 16Zm72 37l0-34c-9 15-20 25-34 32 -14 6-33 9-56 9 -31 0-55-8-70-23 -15-16-23-40-23-72l0-50c0-31 8-55 25-71 17-17 41-25 74-25 20 0 37 3 50 8 14 5 25 14 34 25l0-58c0-32-5-53-13-63 -9-10-26-15-51-15 -21 0-36 4-45 11 -9 7-14 19-14 36l0 18 -49 0 0-17c0-32 9-56 26-70 18-15 46-23 84-23 41 0 69 8 85 24 16 16 24 44 24 86l0 272 -47 0Zm329-217c0-45-5-76-17-93 -11-16-31-25-59-25 -23 0-39 9-49 25 -9 17-14 47-14 91l0 64c0 44 5 74 14 91 10 17 26 25 49 25 28 0 48-9 59-25 12-17 17-48 17-93l0-60Zm48 217l-44 0 0-44c-12 18-26 30-41 38 -15 8-33 12-53 12 -37 0-62-12-78-38 -15-25-23-69-23-132l0-57c0-57 8-98 24-122 17-25 43-37 79-37 19 0 36 4 51 12 14 7 27 19 37 35l0-211 48 0 0 544Zm146-224l148 0 0-24c0-34-6-58-16-70 -11-12-30-18-58-18 -28 0-48 6-58 18 -10 13-16 36-16 70l0 24Zm0 46l0 36c0 43 5 71 15 83 9 12 28 18 57 18 31 0 51-5 62-14 11-9 17-25 17-49l0-12 44 0 0 13c0 39-10 67-29 84 -19 17-50 25-94 25 -45 0-77-11-95-33 -18-22-28-60-28-116l0-88c0-56 10-94 28-116 18-22 50-33 96-33 46 0 78 11 95 32 18 22 27 61 27 117l0 53 -195 0Zm500-147c9-19 21-33 36-42 15-9 33-13 54-13 33 0 57 10 71 29 14 20 22 53 22 100l0 251 -48 0 0-237c0-37-4-63-13-78 -8-14-23-22-44-22 -26 0-44 9-55 28 -10 19-16 52-16 99l0 210 -48 0 0-237c0-38-4-64-12-78 -9-15-23-22-43-22 -26 0-45 10-56 29 -11 19-16 51-16 98l0 210 -48 0 0-374 44 0 0 44c9-17 21-30 36-38 14-8 31-12 51-12 22 0 41 4 55 14 14 9 24 23 30 41Zm278 325l0-374 48 0 0 374 -48 0Zm0-472l0-62 48 0 0 62 -48 0Zm189 248l147 0 0-24c0-34-5-58-15-70 -11-12-30-18-58-18 -29 0-48 6-58 18 -11 13-16 36-16 70l0 24Zm0 46l0 36c0 43 5 71 14 83 10 12 29 18 58 18 30 0 51-5 62-14 11-9 16-25 16-49l0-12 45 0 0 13c0 39-10 67-29 84 -19 17-50 25-94 25 -45 0-77-11-95-33 -19-22-28-60-28-116l0-88c0-56 9-94 28-116 18-22 50-33 96-33 46 0 77 11 95 32 18 22 27 61 27 117l0 53 -195 0Z"/><path class="fil1" d="M1126 1897l0-505 149 0c60 0 100 11 121 32 21 21 31 63 31 125l0 191c0 62-10 104-31 125 -21 21-61 32-121 32l-149 0Zm180-124l0-256c0-14-2-23-6-27 -4-5-12-7-25-7l-31 0 0 324 31 0c12 0 21-2 25-7 4-5 6-14 6-27Zm184 124l0-356 96 0 0 39c9-16 19-28 31-35 12-7 26-11 44-11 21 0 36 6 45 17 9 11 14 30 14 56l0 79 -86 0 0-38c0-12-1-21-4-26 -3-4-9-6-16-6 -8 0-14 2-17 6 -3 4-4 13-4 26l0 249 -103 0Zm189 0l0-112 102 0 0 112 -102 0Zm244 0l0-505 118 0 0 194 61 0 0-194 117 0 0 505 -117 0 0-220 -61 0 0 220 -118 0Zm463-257l0 34 65 0 0-34c0-15-2-25-6-30 -4-5-13-7-27-7 -13 0-22 3-26 8 -4 5-6 14-6 29Zm-106 35c0-55 9-92 28-111 18-20 54-30 107-30 53 0 88 10 107 30 18 19 28 56 28 111l0 69 -164 0 0 45c0 14 2 24 6 28 4 5 12 7 25 7 13 0 21-2 25-7 4-5 6-14 6-28l0-8 102 0 0 24c0 37-10 63-29 77 -19 14-57 21-115 21 -48 0-81-10-99-30 -18-19-27-56-27-110l0-88Zm583-134l0 356 -97 0 0-46c-10 19-22 32-36 40 -13 8-30 12-50 12 -28 0-48-8-59-23 -11-15-16-44-16-86l0-253 103 0 0 248c0 13 2 21 6 26 3 4 10 6 19 6 10 0 17-2 20-7 4-4 6-13 6-25l0-248 104 0Zm160 99l0 34 66 0 0-34c0-15-3-25-7-30 -4-5-12-7-26-7 -13 0-22 3-26 8 -5 5-7 14-7 29Zm-105 35c0-55 9-92 27-111 19-20 55-30 107-30 53 0 89 10 107 30 19 19 28 56 28 111l0 69 -164 0 0 45c0 14 2 24 6 28 4 5 13 7 26 7 12 0 21-2 25-7 4-5 6-14 6-28l0-8 101 0 0 24c0 37-9 63-28 77 -20 14-58 21-115 21 -48 0-81-10-99-30 -18-19-27-56-27-110l0-88Zm325 222l0-356 96 0 0 39c9-16 19-28 31-35 12-7 27-11 44-11 21 0 37 6 46 17 9 11 13 30 13 56l0 79 -85 0 0-38c0-12-2-21-5-26 -3-4-8-6-16-6 -8 0-14 2-17 6 -3 4-4 13-4 26l0 249 -103 0Z"/><path class="fil2" d="M732 983c34 0 61 28 61 62 0 34-27 62-61 62 -35 0-62-28-62-62 0-34 27-62 62-62Z"/></svg>